# xmcd
#
# Track frame offsets:
#	150
#	20623
#	44444
#	67109
#	89582
#	110184
#	138067
#	159739
#	178133
#	204495
#	234323
#	252445
#	276729
#
# Disc length: 3994 seconds
#
# Revision: 0
# Processed by: cddbd v1.5.2PL0 Copyright (c) Steve Scherf et al.
# Submitted via: audiograbber 1.83.01
#
DISCID=c90f980d
DTITLE=Rea, Chris - The blue jukebox
DYEAR=2004
DGENRE=Blues
TTITLE0=The beat goes on
TTITLE1=Long is the time, hard is the road
TTITLE2=Let's do it
TTITLE3=Let it roll
TTITLE4=Steel river blues
TTITLE5=Somebody say Amen
TTITLE6=Blue street
TTITLE7=Monday morning
TTITLE8=Restless soul
TTITLE9=What kind of love is this
TTITLE10=Paint my jukebox blue
TTITLE11=Baby don't cry
TTITLE12=Speed
EXTD=YEAR: 2004
EXTT0=
EXTT1=
EXTT2=
EXTT3=
EXTT4=
EXTT5=
EXTT6=
EXTT7=
EXTT8=
EXTT9=
EXTT10=
EXTT11=
EXTT12=
PLAYORDER=
